<?xml version="1.0" encoding="UTF-8" standalone="no"?>
<svg width="87px" height="98px" viewBox="0 0 87 98" version="1.1" xmlns="http://www.w3.org/2000/svg" xmlns:xlink="http://www.w3.org/1999/xlink" xmlns:sketch="http://www.bohemiancoding.com/sketch/ns">
    <!-- Generator: Sketch 3.2.2 (9983) - http://www.bohemiancoding.com/sketch -->
    <title>Untitled 3</title>
    <desc>Created with Sketch.</desc>
    <defs></defs>
    <g id="Page-1" stroke="none" stroke-width="1" fill="none" fill-rule="evenodd" sketch:type="MSPage">
        <g id="logo" sketch:type="MSLayerGroup" fill="#D5D9DB">
            <path d="M81.128,21.286 L48.419,2.403 C45.177,0.532 41.187,0.532 37.945,2.403 L5.237,21.286 C1.997,23.158 0,26.616 0,30.357 L0,68.123 C0,71.863 1.997,75.322 5.237,77.191 L37.945,96.08 C41.186,97.949 45.176,97.949 48.419,96.08 L81.126,77.191 C84.364,75.322 86.364,71.863 86.364,68.125 L86.364,30.357 C86.364,26.616 84.364,23.158 81.128,21.286 L81.128,21.286 Z M77.983,67.139 C77.983,68.262 77.383,69.299 76.413,69.86 L68.761,74.284 C67.788,74.841 66.591,74.841 65.618,74.284 L57.966,69.86 C56.995,69.303 56.396,68.262 56.396,67.139 L56.396,58.301 C56.396,57.178 56.996,56.143 57.966,55.578 L65.618,51.16 C66.591,50.599 67.788,50.599 68.761,51.16 L76.413,55.578 C77.384,56.14 77.983,57.178 77.983,58.301 L77.983,67.139 L77.983,67.139 Z" id="Shape" sketch:type="MSShapeGroup"></path>
        </g>
    </g>
</svg>